<svg width="100" height="100" viewBox="0 0 100 100" fill="none" xmlns="http://www.w3.org/2000/svg">
<rect width="100" height="100" rx="15" fill="#FF9900"/>
<path d="M8.88636 62V58.4545L17.1705 50.7841C17.875 50.1023 18.4659 49.4886 18.9432 48.9432C19.428 48.3977 19.7955 47.8636 20.0455 47.3409C20.2955 46.8106 20.4205 46.2386 20.4205 45.625C20.4205 44.9432 20.2652 44.3561 19.9545 43.8636C19.6439 43.3636 19.2197 42.9811 18.6818 42.7159C18.1439 42.4432 17.5341 42.3068 16.8523 42.3068C16.1402 42.3068 15.5189 42.4508 14.9886 42.7386C14.4583 43.0265 14.0492 43.4394 13.7614 43.9773C13.4735 44.5152 13.3295 45.1553 13.3295 45.8977H8.65909C8.65909 44.375 9.00379 43.053 9.69318 41.9318C10.3826 40.8106 11.3485 39.9432 12.5909 39.3295C13.8333 38.7159 15.2652 38.4091 16.8864 38.4091C18.553 38.4091 20.0038 38.7045 21.2386 39.2955C22.4811 39.8788 23.447 40.6894 24.1364 41.7273C24.8258 42.7652 25.1705 43.9545 25.1705 45.2955C25.1705 46.1742 24.9962 47.0417 24.6477 47.8977C24.3068 48.7538 23.697 49.7045 22.8182 50.75C21.9394 51.7879 20.7008 53.0341 19.1023 54.4886L15.7045 57.8182V57.9773H25.4773V62H8.88636ZM38.1676 62.5114C36.2131 62.5038 34.5313 62.0227 33.1222 61.0682C31.7206 60.1136 30.6411 58.7311 29.8835 56.9205C29.1335 55.1098 28.7623 52.9318 28.7699 50.3864C28.7699 47.8485 29.1449 45.6856 29.8949 43.8977C30.6525 42.1098 31.732 40.75 33.1335 39.8182C34.5426 38.8788 36.2206 38.4091 38.1676 38.4091C40.1146 38.4091 41.7888 38.8788 43.1903 39.8182C44.5994 40.7576 45.6828 42.1212 46.4403 43.9091C47.1979 45.6894 47.5729 47.8485 47.5653 50.3864C47.5653 52.9394 47.1866 55.1212 46.429 56.9318C45.679 58.7424 44.6032 60.125 43.2017 61.0795C41.8002 62.0341 40.1222 62.5114 38.1676 62.5114ZM38.1676 58.4318C39.5009 58.4318 40.5653 57.7614 41.3608 56.4205C42.1563 55.0795 42.5502 53.0682 42.5426 50.3864C42.5426 48.6212 42.3608 47.1515 41.9972 45.9773C41.6411 44.803 41.1335 43.9205 40.4744 43.3295C39.8229 42.7386 39.054 42.4432 38.1676 42.4432C36.8419 42.4432 35.7813 43.1061 34.9858 44.4318C34.1903 45.7576 33.7888 47.7424 33.7812 50.3864C33.7812 52.1742 33.9593 53.6667 34.3153 54.8636C34.679 56.053 35.1903 56.947 35.8494 57.5455C36.5085 58.1364 37.2812 58.4318 38.1676 58.4318ZM50.7216 57.9091V54.0341L60.4375 38.7273H63.7784V44.0909H61.8011L55.6761 53.7841V53.9659H69.483V57.9091H50.7216ZM61.892 62V56.7273L61.983 55.0114V38.7273H66.5966V62H61.892ZM81.4432 62.3182C79.6932 62.3182 78.1364 62.0341 76.7727 61.4659C75.4167 60.8902 74.3523 60.1061 73.5795 59.1136C72.8068 58.1212 72.4205 56.9962 72.4205 55.7386C72.4205 54.7689 72.6402 53.8788 73.0795 53.0682C73.5265 52.25 74.1326 51.572 74.8977 51.0341C75.6629 50.4886 76.5189 50.1402 77.4659 49.9886V49.8295C76.2235 49.5795 75.2159 48.9773 74.4432 48.0227C73.6705 47.0606 73.2841 45.9432 73.2841 44.6705C73.2841 43.4659 73.6364 42.3939 74.3409 41.4545C75.0455 40.5076 76.0114 39.7652 77.2386 39.2273C78.4735 38.6818 79.875 38.4091 81.4432 38.4091C83.0114 38.4091 84.4091 38.6818 85.6364 39.2273C86.8712 39.7727 87.8409 40.5189 88.5455 41.4659C89.25 42.4053 89.6061 43.4735 89.6136 44.6705C89.6061 45.9508 89.2121 47.0682 88.4318 48.0227C87.6515 48.9773 86.6515 49.5795 85.4318 49.8295V49.9886C86.3636 50.1402 87.2083 50.4886 87.9659 51.0341C88.7311 51.572 89.3371 52.25 89.7841 53.0682C90.2386 53.8788 90.4697 54.7689 90.4773 55.7386C90.4697 56.9962 90.0795 58.1212 89.3068 59.1136C88.5341 60.1061 87.4659 60.8902 86.1023 61.4659C84.7462 62.0341 83.1932 62.3182 81.4432 62.3182ZM81.4432 58.7045C82.2235 58.7045 82.9053 58.5644 83.4886 58.2841C84.072 57.9962 84.5265 57.6023 84.8523 57.1023C85.1856 56.5947 85.3523 56.0114 85.3523 55.3523C85.3523 54.678 85.1818 54.0833 84.8409 53.5682C84.5 53.0455 84.0379 52.6364 83.4545 52.3409C82.8712 52.0379 82.2008 51.8864 81.4432 51.8864C80.6932 51.8864 80.0227 52.0379 79.4318 52.3409C78.8409 52.6364 78.375 53.0455 78.0341 53.5682C77.7008 54.0833 77.5341 54.678 77.5341 55.3523C77.5341 56.0114 77.697 56.5947 78.0227 57.1023C78.3485 57.6023 78.8068 57.9962 79.3977 58.2841C79.9886 58.5644 80.6705 58.7045 81.4432 58.7045ZM81.4432 48.3068C82.0947 48.3068 82.6742 48.1742 83.1818 47.9091C83.6894 47.6439 84.0871 47.2765 84.375 46.8068C84.6629 46.3371 84.8068 45.7955 84.8068 45.1818C84.8068 44.5758 84.6629 44.0455 84.375 43.5909C84.0871 43.1288 83.6932 42.7689 83.1932 42.5114C82.6932 42.2462 82.1098 42.1136 81.4432 42.1136C80.7841 42.1136 80.2008 42.2462 79.6932 42.5114C79.1856 42.7689 78.7879 43.1288 78.5 43.5909C78.2197 44.0455 78.0795 44.5758 78.0795 45.1818C78.0795 45.7955 78.2235 46.3371 78.5114 46.8068C78.7992 47.2765 79.197 47.6439 79.7045 47.9091C80.2121 48.1742 80.7917 48.3068 81.4432 48.3068Z" fill="white"/>
</svg>
